<svg width="854" height="854" viewBox="0 0 854 854" fill="none" xmlns="http://www.w3.org/2000/svg">
<path d="M216.133 73.3337C201.999 75.467 184.399 87.2004 170.133 104C163.333 111.867 154.799 126 152.266 133.2C149.733 140.267 149.999 679.467 152.533 688.667C154.533 696.267 160.799 709.2 165.866 716C172.266 724.667 185.733 737.2 191.199 739.734C194.266 741.2 202.933 743.067 210.666 744C224.933 745.734 226.133 745.734 268.666 741.334C301.999 737.867 377.199 730.134 397.999 728C421.733 725.467 449.199 722.667 481.333 719.334C499.333 717.467 520.133 715.334 527.733 714.534L541.466 713.067L547.066 718.134C553.199 723.734 592.799 761.2 606.399 774.4C611.199 778.934 616.133 782.667 617.333 782.667C622.399 782.667 622.933 779.6 624.399 740.134L625.866 701.467L638.933 695.867C656.799 688.4 669.733 678.4 681.333 663.334C693.733 647.067 696.799 638 699.199 608.8C707.333 514.667 704.666 339.867 693.333 212.667C690.266 178.934 687.199 165.067 680.266 154C674.399 144.8 661.333 133.2 651.333 128.534C639.466 122.934 629.333 120.267 612.666 118.534C594.933 116.667 553.999 111.734 509.999 106C490.266 103.334 460.533 99.7337 443.999 98.0004C397.599 92.8004 349.733 87.067 290.666 79.867C225.733 72.0004 225.199 72.0004 216.133 73.3337ZM283.066 84.0004C312.533 87.7337 360.266 93.467 389.333 96.667C457.866 104.4 477.333 106.667 527.999 113.334C571.733 119.067 595.066 121.867 611.999 123.334C640.533 126 663.999 138 675.066 155.6C683.199 168.4 685.199 178.267 689.199 224.667C699.866 344.8 702.266 517.334 694.533 608C692.799 628.8 690.533 638.4 684.666 648.667C673.466 668.667 657.333 683.067 636.933 691.2C630.133 693.867 623.866 696.534 622.933 697.067C621.733 697.867 620.799 708.267 619.733 737.467C618.933 759.067 618.133 776.934 617.866 777.2C617.599 777.467 613.599 774.267 609.066 769.867C604.399 765.6 590.399 752.4 577.999 740.534C565.466 728.8 552.533 716.667 549.199 713.467L542.933 707.867L494.533 713.334C430.799 720.534 408.266 722.934 351.999 728.667C304.133 733.6 282.399 735.867 265.999 737.734C243.866 740.134 207.866 739.734 198.399 736.934C184.266 732.667 165.333 710.934 158.533 691.067L155.333 682V410L155.466 138L158.933 130.534C172.533 100.934 200.933 78.0004 224.399 77.467C227.199 77.3337 253.599 80.4004 283.066 84.0004Z" fill="white"/>
<path d="M275.333 303.467C251.999 308.267 233.733 322.267 227.866 339.733C221.866 357.867 226.399 377.867 239.199 388.8C249.599 397.733 257.866 400.8 289.066 407.867C307.866 412.133 314.666 415.467 314.666 420.4C314.666 426.933 309.066 429.333 293.733 429.333C277.599 429.333 253.999 423.333 243.066 416.267C240.266 414.533 239.999 414.667 237.999 419.6C236.799 422.4 232.799 431.467 229.066 439.733C221.199 457.067 220.533 455.2 236.533 461.467C268.933 474 310.266 474.8 337.733 463.333C339.466 462.667 339.999 463.067 339.999 465.2C339.999 468 340.399 468 367.333 468H394.666V448V428H411.066C430.133 427.867 444.133 425.733 455.333 420.933L463.333 417.6L463.733 442.8L463.999 468H490.666H517.333V447.6L517.466 427.333L522.666 422C525.599 419.067 527.999 416.267 527.999 415.6C527.999 412.267 532.799 417.6 550.799 441.333L570.933 468H602.133C619.333 468 633.333 467.6 633.333 467.2C633.333 466.667 618.266 446.267 599.866 421.733C581.599 397.2 566.666 376.667 566.933 376C567.199 375.333 569.999 372 573.333 368.4C576.666 364.933 585.599 355.067 593.199 346.667C600.799 338.267 612.399 325.467 619.066 318.267L630.933 305.333H600.933H570.933L559.066 318.267C552.666 325.333 543.999 334.8 539.999 339.333C522.533 358.667 518.799 362.667 518.133 362.667C517.599 362.667 517.333 349.733 517.333 334V305.333H490.666H463.999V310.133C463.999 314.267 463.599 314.8 461.733 314C460.399 313.467 455.199 311.467 449.999 309.467L440.666 306L385.333 305.2C353.333 304.667 327.466 303.733 323.999 302.933C315.466 300.8 286.399 301.2 275.333 303.467ZM316.666 344.667C321.866 345.733 329.199 347.867 333.066 349.467L339.999 352.267V362.8C339.999 374.133 339.599 374.667 332.933 372.133C331.199 371.467 321.066 368.933 310.533 366.667C281.466 360.133 276.799 357.6 280.133 350.133C283.333 343.2 298.666 340.933 316.666 344.667ZM428.266 350.4C434.133 354 435.999 358.267 435.999 367.333C435.999 373.067 435.333 375.333 432.533 378.533C428.133 383.733 422.266 385.333 407.066 385.333H394.666V365.867V346.267L409.066 346.933C420.933 347.467 424.399 348 428.266 350.4Z" fill="white"/>
<path d="M232 511.334C232 533.334 232.267 537.334 234 537.334C235.6 537.334 236 533.601 236.267 514.801L236.667 492.267L254 514.401C263.6 526.534 272.133 536.667 273.067 537.067C274.267 537.467 274.667 531.334 274.667 511.467C274.667 494.934 274.133 485.334 273.333 485.334C272.533 485.334 272 493.601 272 507.467C272 519.601 271.467 529.334 270.8 529.067C270.133 528.801 262 518.934 252.667 506.934C243.333 495.067 234.8 485.334 233.867 485.334C232.4 485.334 232 490.267 232 511.334Z" fill="white"/>
<path d="M292.133 511.334L292 537.334H309.867C332.933 537.334 335.6 534.934 313.067 534.401L296.667 534.001L296.267 522.934L295.867 512.001H310C328.133 512.001 328.533 509.601 310.4 509.067L296.667 508.667L296.267 498.267L295.867 488.001H312C321.733 488.001 328 487.467 328 486.667C328 485.867 321.2 485.334 310.133 485.334H292.267L292.133 511.334Z" fill="white"/>
<path d="M333.332 486.667C333.332 487.467 337.599 488.001 343.332 488.001H353.332V512.667C353.332 528.267 353.865 537.334 354.665 537.334C355.465 537.334 355.999 528.267 355.999 512.667V488.001H365.332C370.665 488.001 374.665 487.467 374.665 486.667C374.665 485.867 366.932 485.334 353.999 485.334C341.065 485.334 333.332 485.867 333.332 486.667Z" fill="white"/>
<path d="M379.467 488.267C386.933 512.4 396.133 536.8 397.733 537.067C400 537.467 399.467 538.667 408.267 513.334C411.867 502.667 415.333 493.2 415.867 492.267C416.4 491.334 420.267 500.534 424.8 513.6C430 529.067 433.333 536.8 434.8 537.067C436.4 537.334 438.8 531.467 445.6 511.334C451.733 493.6 453.867 485.334 452.8 485.334C451.733 485.334 448 494.267 443.2 508C438.933 520.4 435.067 530.667 434.667 530.667C434 530.667 432.533 526.534 422.533 497.6C419.467 488.667 417.733 485.334 416.267 485.6C414.933 485.867 411.6 493.734 406.8 507.734C402.667 519.734 398.8 529.6 398.133 529.734C397.467 529.867 393.6 520 389.467 507.6C384.8 493.734 381.333 485.334 380.267 485.334C379.067 485.334 378.8 486.267 379.467 488.267Z" fill="white"/>
<path d="M473.332 487.867C470.799 489.2 466.932 492.533 464.799 495.2C461.332 499.467 460.665 501.6 460.265 509.333C459.732 517.467 460.132 519.333 463.199 524.533C467.865 532.533 474.132 536.133 484.665 537.067C495.465 537.867 503.865 534.267 509.065 526.267C512.132 521.6 512.665 519.467 512.665 510.667C512.665 501.6 512.265 500 508.932 495.6C506.799 492.8 502.799 489.467 499.999 488C493.065 484.4 479.732 484.4 473.332 487.867ZM496.399 489.867C507.599 494.533 513.199 507.867 508.665 519.333C501.465 538.4 474.665 539.6 465.332 521.333C457.465 505.867 468.665 488.267 486.399 488C489.465 488 493.999 488.8 496.399 489.867Z" fill="white"/>
<path d="M526.666 511.333C526.666 533.6 526.933 537.333 528.666 537.333C530.266 537.333 530.666 535.466 530.666 528.666V520H541.066L551.333 520.133L557.733 528.666C563.333 536.4 566.799 539.333 566.666 536.266C566.533 535.733 563.999 531.733 560.799 527.466L554.933 519.466L559.199 516.666C570.133 509.333 569.199 493.466 557.333 487.333C554.666 486 549.333 485.333 539.999 485.333H526.666V511.333ZM555.466 490C561.866 492.666 564.933 499.733 562.799 506.933C560.533 514.4 556.399 516.4 542.533 517.066L530.666 517.6V502.8V488H540.666C546.533 488 552.666 488.8 555.466 490Z" fill="white"/>
<path d="M580 511.334C580 533.601 580.267 537.334 582 537.334C583.467 537.334 584 535.601 584 530.267C584 523.601 584.4 522.801 590.133 517.334L596.133 511.334L603.067 519.334C615.867 534.134 619.467 537.734 621.067 537.201C622 536.934 617.333 530.401 610.533 522.801L598.533 508.934L606.933 500.267C621.067 485.734 620.667 486.267 618.8 485.601C617.733 485.201 610.133 492.134 601.467 501.201C592.933 510.134 585.6 517.334 585.067 517.334C584.4 517.334 584 510.134 584 501.334C584 488.001 583.733 485.334 582 485.334C580.267 485.334 580 489.067 580 511.334Z" fill="white"/>
</svg>
