<?xml version="1.0" standalone="no"?>
<svg version="1.0" xmlns="http://www.w3.org/2000/svg"
 width="640.000000pt" height="640.000000pt" viewBox="0 0 640.000000 640.000000"
 preserveAspectRatio="xMidYMid meet">
<g transform="translate(0.000000,640.000000) scale(0.100000,-0.100000)"
fill="#000000" stroke="none">
<path d="M1621 5850 c-106 -16 -238 -104 -345 -230 -51 -59 -115 -165 -134
-219 -19 -53 -17 -4097 2 -4166 15 -57 62 -154 100 -205 48 -65 149 -159 190
-178 23 -11 88 -25 146 -32 107 -13 116 -13 435 20 250 26 814 84 970 100 178
19 384 40 625 65 135 14 291 30 348 36 l103 11 42 -38 c46 -42 343 -323 445
-422 36 -34 73 -62 82 -62 38 0 42 23 53 319 l11 290 98 42 c134 56 231 131
318 244 93 122 116 190 134 409 61 706 41 2017 -44 2971 -23 253 -46 357 -98
440 -44 69 -142 156 -217 191 -89 42 -165 62 -290 75 -133 14 -440 51 -770 94
-148 20 -371 47 -495 60 -348 39 -707 82 -1150 136 -487 59 -491 59 -559 49z
m502 -80 c221 -28 579 -71 797 -95 514 -58 660 -75 1040 -125 328 -43 503 -64
630 -75 214 -20 390 -110 473 -242 61 -96 76 -170 106 -518 80 -901 98 -2195
40 -2875 -13 -156 -30 -228 -74 -305 -84 -150 -205 -258 -358 -319 -51 -20
-98 -40 -105 -44 -9 -6 -16 -84 -24 -303 -6 -162 -12 -296 -14 -298 -2 -2 -32
22 -66 55 -35 32 -140 131 -233 220 -94 88 -191 179 -216 203 l-47 42 -363
-41 c-478 -54 -647 -72 -1069 -115 -359 -37 -522 -54 -645 -68 -166 -18 -436
-15 -507 6 -106 32 -248 195 -299 344 l-24 68 0 2040 1 2040 26 56 c102 222
315 394 491 398 21 1 219 -22 440 -49z"/>
<path d="M2065 4124 c-175 -36 -312 -141 -356 -272 -45 -136 -11 -286 85 -368
78 -67 140 -90 374 -143 141 -32 192 -57 192 -94 0 -49 -42 -67 -157 -67 -121
0 -298 45 -380 98 -21 13 -23 12 -38 -25 -9 -21 -39 -89 -67 -151 -59 -130
-64 -116 56 -163 243 -94 553 -100 759 -14 13 5 17 2 17 -14 0 -21 3 -21 205
-21 l205 0 0 150 0 150 123 0 c143 1 248 17 332 53 l60 25 3 -189 2 -189 200
0 200 0 0 153 1 152 39 40 c22 22 40 43 40 48 0 25 36 -15 171 -193 l151 -200
234 0 c129 0 234 3 234 6 0 4 -113 157 -251 341 -137 184 -249 338 -247 343 2
5 23 30 48 57 25 26 92 100 149 163 57 63 144 159 194 213 l89 97 -225 0 -225
0 -89 -97 c-48 -53 -113 -124 -143 -158 -131 -145 -159 -175 -164 -175 -4 0
-6 97 -6 215 l0 215 -200 0 -200 0 0 -36 c0 -31 -3 -35 -17 -29 -10 4 -49 19
-88 34 l-70 26 -415 6 c-240 4 -434 11 -460 17 -64 16 -282 13 -365 -4z m310
-309 c39 -8 94 -24 123 -36 l52 -21 0 -79 c0 -85 -3 -89 -53 -70 -13 5 -89 24
-168 41 -218 49 -253 68 -228 124 24 52 139 69 274 41z m837 -43 c44 -27 58
-59 58 -127 0 -43 -5 -60 -26 -84 -33 -39 -77 -51 -191 -51 l-93 0 0 146 0
147 108 -5 c89 -4 115 -8 144 -26z"/>
<path d="M1740 2565 c0 -165 2 -195 15 -195 12 0 15 28 17 169 l3 169 130
-166 c72 -91 136 -167 143 -170 9 -3 12 43 12 192 0 124 -4 196 -10 196 -6 0
-10 -62 -10 -166 0 -91 -4 -164 -9 -162 -5 2 -66 76 -136 166 -70 89 -134 162
-141 162 -11 0 -14 -37 -14 -195z"/>
<path d="M2191 2565 l-1 -195 134 0 c173 0 193 18 24 22 l-123 3 -3 83 -3 82
106 0 c136 0 139 18 3 22 l-103 3 -3 78 -3 77 121 0 c73 0 120 4 120 10 0 6
-51 10 -134 10 l-134 0 -1 -195z"/>
<path d="M2500 2750 c0 -6 32 -10 75 -10 l75 0 0 -185 c0 -117 4 -185 10 -185
6 0 10 68 10 185 l0 185 70 0 c40 0 70 4 70 10 0 6 -58 10 -155 10 -97 0 -155
-4 -155 -10z"/>
<path d="M2846 2738 c56 -181 125 -364 137 -366 17 -3 13 -12 79 178 27 80 53
151 57 158 4 7 33 -62 67 -160 39 -116 64 -174 75 -176 12 -2 30 42 81 193 46
133 62 195 54 195 -8 0 -36 -67 -72 -170 -32 -93 -61 -170 -64 -170 -5 0 -16
31 -91 248 -23 67 -36 92 -47 90 -10 -2 -35 -61 -71 -166 -31 -90 -60 -164
-65 -165 -5 -1 -34 73 -65 166 -35 104 -61 167 -69 167 -9 0 -11 -7 -6 -22z"/>
<path d="M3550 2741 c-19 -10 -48 -35 -64 -55 -26 -32 -31 -48 -34 -106 -4
-61 -1 -75 22 -114 35 -60 82 -87 161 -94 81 -6 144 21 183 81 23 35 27 51 27
117 0 68 -3 80 -28 113 -16 21 -46 46 -67 57 -52 27 -152 27 -200 1z m173 -15
c84 -35 126 -135 92 -221 -54 -143 -255 -152 -325 -15 -59 116 25 248 158 250
23 0 57 -6 75 -14z"/>
<path d="M3950 2565 c0 -167 2 -195 15 -195 12 0 15 14 15 65 l0 65 78 0 77
-1 48 -64 c42 -58 68 -80 67 -57 -1 4 -20 34 -44 66 l-44 60 32 21 c82 55 75
174 -14 220 -20 10 -60 15 -130 15 l-100 0 0 -195z m216 160 c48 -20 71 -73
55 -127 -17 -56 -48 -71 -152 -76 l-89 -4 0 111 0 111 75 0 c44 0 90 -6 111
-15z"/>
<path d="M4350 2565 c0 -167 2 -195 15 -195 11 0 15 13 15 53 0 50 3 56 46 97
l45 45 52 -60 c96 -111 123 -138 135 -134 7 2 -28 51 -79 108 l-90 104 63 65
c106 109 103 105 89 110 -8 3 -65 -49 -130 -117 -64 -67 -119 -121 -123 -121
-5 0 -8 54 -8 120 0 100 -2 120 -15 120 -13 0 -15 -28 -15 -195z"/>
</g>
</svg>
